HIERARCHY
ROOT Hips
{
	OFFSET 0.000000 0.000000 0.000000
	CHANNELS 6 Xposition Yposition Zposition Xrotation Yrotation Zrotation
	JOINT LeftUpLeg_virtual
	{
		OFFSET 0.000000 0.000000 0.000000
		CHANNELS 3 Xrotation Yrotation Zrotation
		JOINT LeftUpLeg
		{
			OFFSET 15.427100 -6.655098 0.678600
			CHANNELS 3 Xrotation Yrotation Zrotation
			JOINT LeftLeg
			{
				OFFSET 4.081073 -39.591068 13.024000
				CHANNELS 3 Xrotation Yrotation Zrotation
				JOINT LeftFoot
				{
					OFFSET -4.081074 -37.707932 -15.979700
					CHANNELS 3 Xrotation Yrotation Zrotation
					JOINT LeftToeBase
					{
						OFFSET 5.346399 -15.068900 20.645000
						CHANNELS 3 Xrotation Yrotation Zrotation
						JOINT LeftToe_End
						{
							OFFSET 2.754700 0.931300 11.300900
							CHANNELS 3 Xrotation Yrotation Zrotation
							End Site
							{
								OFFSET 0 0 0
							}
						}
					}
				}
			}
		}
	}
	JOINT RightUpLeg_virtual
	{
		OFFSET 0.000000 0.000000 0.000000
		CHANNELS 3 Xrotation Yrotation Zrotation
		JOINT RightUpLeg
		{
			OFFSET -15.569500 -6.655098 0.678600
			CHANNELS 3 Xrotation Yrotation Zrotation
			JOINT RightLeg
			{
				OFFSET -4.081825 -39.591045 13.023800
				CHANNELS 3 Xrotation Yrotation Zrotation
				JOINT RightFoot
				{
					OFFSET 4.081824 -37.707954 -15.979600
					CHANNELS 3 Xrotation Yrotation Zrotation
					JOINT RightToeBase
					{
						OFFSET -5.346400 -15.068900 20.645000
						CHANNELS 3 Xrotation Yrotation Zrotation
						JOINT RightToe_End
						{
							OFFSET -2.754700 0.931300 11.300900
							CHANNELS 3 Xrotation Yrotation Zrotation
							End Site
							{
								OFFSET 0 0 0
							}
						}
					}
				}
			}
		}
	}
	JOINT Spine_virtual
	{
		OFFSET 0.000000 0.000000 0.000000
		CHANNELS 3 Xrotation Yrotation Zrotation
		JOINT Spine
		{
			OFFSET -0.279200 12.230698 -2.892100
			CHANNELS 3 Xrotation Yrotation Zrotation
			JOINT Spine1
			{
				OFFSET -0.232667 10.192268 -1.242267
				CHANNELS 3 Xrotation Yrotation Zrotation
				JOINT Spine1_split
				{
					OFFSET -0.232667 10.192268 -1.242267
					CHANNELS 3 Xrotation Yrotation Zrotation
					JOINT Spine2
					{
						OFFSET -0.232667 10.192268 -1.242267
						CHANNELS 3 Xrotation Yrotation Zrotation
						JOINT Neck_virtual
						{
							OFFSET 0.000000 0.000000 0.000000
							CHANNELS 3 Xrotation Yrotation Zrotation
							JOINT Neck
							{
								OFFSET -0.418800 17.814194 8.416900
								CHANNELS 3 Xrotation Yrotation Zrotation
								JOINT Head
								{
									OFFSET 0.000000 7.031097 3.806800
									CHANNELS 3 Xrotation Yrotation Zrotation
									JOINT HeadTop_End
									{
										OFFSET 0.000000 24.646606 12.978600
										CHANNELS 3 Xrotation Yrotation Zrotation
										End Site
										{
											OFFSET 0 0 0
										}
									}
								}
							}
						}
						JOINT LeftShoulder_virtual
						{
							OFFSET 0.000000 0.000000 0.000000
							CHANNELS 3 Xrotation Yrotation Zrotation
							JOINT LeftShoulder
							{
								OFFSET 8.476499 7.247704 -3.868750
								CHANNELS 3 Xrotation Yrotation Zrotation
								JOINT LeftShoulder_split
								{
									OFFSET 8.476499 7.247704 -3.868750
									CHANNELS 3 Xrotation Yrotation Zrotation
									JOINT LeftArm
									{
										OFFSET 9.308998 -2.777710 0.208600
										CHANNELS 3 Xrotation Yrotation Zrotation
										JOINT LeftForeArm
										{
											OFFSET 29.972298 0.000000 0.000000
											CHANNELS 3 Xrotation Yrotation Zrotation
											JOINT LeftHand
											{
												OFFSET 26.026505 0.000000 0.000000
												CHANNELS 3 Xrotation Yrotation Zrotation
												End Site
												{
													OFFSET 0 0 0
												}
											}
										}
									}
								}
							}
						}
						JOINT RightShoulder_virtual
						{
							OFFSET 0.000000 0.000000 0.000000
							CHANNELS 3 Xrotation Yrotation Zrotation
							JOINT RightShoulder
							{
								OFFSET -7.570500 7.247704 -3.868750
								CHANNELS 3 Xrotation Yrotation Zrotation
								JOINT RightShoulder_split
								{
									OFFSET -7.570500 7.247704 -3.868750
									CHANNELS 3 Xrotation Yrotation Zrotation
									JOINT RightArm
									{
										OFFSET -9.308998 -2.777710 0.208500
										CHANNELS 3 Xrotation Yrotation Zrotation
										JOINT RightForeArm
										{
											OFFSET -29.972300 0.000000 0.000000
											CHANNELS 3 Xrotation Yrotation Zrotation
											JOINT RightHand
											{
												OFFSET -26.026505 0.000000 0.000000
												CHANNELS 3 Xrotation Yrotation Zrotation
												End Site
												{
													OFFSET 0 0 0
												}
											}
										}
									}
								}
							}
						}
					}
				}
			}
		}
	}
}
MOTION
Frames: 9
Frame Time: 0.03333333
25.242420 82.609871 8.265701 0.000000 0.000000 0.000000 156.684717 -66.136838 163.228038 -53.483735 43.111252 47.789468 36.082817 -3.516299 -4.881009 3.412853 9.897252 -2.142913 1.833105 5.535219 -10.996986 0.000000 0.000000 0.000000 158.508145 -66.168393 166.549013 -38.779864 -17.894086 -31.173697 31.426967 -4.380532 -0.746462 -13.727838 -3.767794 12.681692 1.846918 3.787414 1.002601 0.000000 0.000000 0.000000 150.095907 -69.094836 156.268964 10.550574 -3.111836 -0.820126 5.485041 -3.080614 -2.813863 0.282877 -1.609536 0.949256 0.000000 0.000000 0.000000 -1.706185 -4.897889 -1.899806 4.615721 14.373213 -2.319499 -15.191811 10.930759 -3.225295 0.000000 0.000000 0.000000 -1.673859 -5.407671 -1.582137 -1.190197 -9.825684 -5.700015 0.530696 0.714760 0.854184 -24.814347 -14.324095 -47.676216 -14.533096 -28.290140 -14.695159 0.000000 0.000000 0.000000 -3.477953 -5.698745 -1.930165 -5.461519 19.345442 3.718576 1.074498 -3.412758 0.074960 -12.357228 -11.138839 60.432421 10.604842 38.097262 -2.089912 0.000000 0.000000 0.000000 
25.272446 82.239098 7.061787 0.000000 0.000000 0.000000 156.631660 -64.130442 163.327773 -57.267841 41.480313 50.063910 37.991404 -6.075713 -4.399673 7.111686 7.972151 0.661667 0.994434 6.123406 -13.389977 0.000000 0.000000 0.000000 158.875295 -63.377879 167.133049 -40.383306 -17.397846 -30.670295 32.299510 -3.346595 -0.327327 -15.133621 -2.197900 12.548422 1.570623 4.202371 0.703165 0.000000 0.000000 0.000000 150.635464 -66.474037 157.031500 10.777160 -3.024082 -1.149482 4.809597 -2.152015 -2.933323 0.425684 -1.896396 0.823905 0.000000 0.000000 0.000000 -2.461054 -3.894631 -1.982447 3.933875 15.981331 -3.374302 -15.619932 12.451796 -3.262637 0.000000 0.000000 0.000000 -2.429623 -4.349924 -1.708154 -1.012212 -9.345236 -5.758841 0.550330 0.527455 0.493051 -25.123507 -15.810378 -47.774561 -15.734075 -30.730981 -14.944469 0.000000 0.000000 0.000000 -4.112355 -4.621291 -2.033413 -5.605993 19.154005 3.674538 1.094619 -3.328818 -0.154530 -11.765989 -11.304044 60.728250 12.764952 37.906092 -3.431837 0.000000 0.000000 0.000000 
25.153412 81.894653 6.061573 0.000000 0.000000 0.000000 156.731176 -62.424125 163.462287 -60.116012 40.131893 51.265720 38.957449 -8.678344 -3.733311 10.307193 6.189041 3.545277 -0.358203 6.218065 -14.439034 0.000000 0.000000 0.000000 159.178528 -60.903684 167.545087 -41.259715 -16.668940 -30.080901 33.178388 -2.396755 0.002303 -16.996719 -0.840772 12.275434 1.807426 4.420151 0.711632 0.000000 0.000000 0.000000 151.211823 -64.170283 157.764037 11.068366 -2.902832 -1.332550 4.181361 -1.258189 -3.127519 0.607278 -2.255901 0.782866 0.000000 0.000000 0.000000 -3.206814 -2.926103 -2.118372 3.410168 17.476523 -4.224612 -15.787888 13.783665 -3.240892 0.000000 0.000000 0.000000 -3.153807 -3.334355 -1.900397 -0.863966 -9.020952 -5.701074 0.802787 0.392870 0.221187 -25.462660 -15.866208 -48.114339 -17.063245 -33.173293 -15.350401 0.000000 0.000000 0.000000 -4.697592 -3.574488 -2.195112 -5.667901 18.954147 3.513528 1.007336 -3.270895 -0.345197 -10.817557 -11.488050 60.921223 14.593906 37.731775 -4.574944 0.000000 0.000000 0.000000 
24.854265 81.591095 5.112896 0.000000 0.000000 0.000000 156.951176 -60.959520 163.577539 -62.297028 39.069065 51.885785 38.828833 -11.195129 -3.189543 12.397231 4.560789 5.977027 -0.745577 5.609321 -14.327606 0.000000 0.000000 0.000000 159.447255 -58.771660 167.817598 -41.365156 -15.721697 -29.421453 34.056201 -1.653573 0.247483 -19.295430 0.256856 11.707125 2.831074 4.476083 0.866315 0.000000 0.000000 0.000000 151.944293 -62.125878 158.555615 11.441842 -2.783561 -1.345589 3.601599 -0.432280 -3.372498 0.706554 -2.570562 0.786368 0.000000 0.000000 0.000000 -3.937733 -2.026587 -2.303950 3.049236 18.788402 -4.866018 -15.676879 14.895606 -3.128128 0.000000 0.000000 0.000000 -3.842402 -2.381716 -2.141161 -0.762195 -8.823207 -5.603024 1.210591 0.313274 0.031644 -25.734852 -14.642191 -48.485891 -18.390414 -35.435390 -15.824647 0.000000 0.000000 0.000000 -5.243186 -2.601750 -2.419442 -5.643881 18.729919 3.267974 0.846726 -3.379566 -0.491707 -9.644022 -11.648125 60.873904 15.978801 37.597248 -5.440367 0.000000 0.000000 0.000000 
24.335623 81.325195 4.295341 0.000000 0.000000 0.000000 157.412747 -59.575055 163.859380 -64.331223 37.863864 52.418765 38.286195 -13.670087 -2.927955 14.292003 2.974411 7.021270 0.544539 4.246450 -13.200492 0.000000 0.000000 0.000000 159.733604 -56.968846 168.018870 -40.956485 -14.471769 -28.793253 34.961802 -0.981658 0.442096 -21.620636 1.209378 11.183779 4.105417 4.419043 1.050286 0.000000 0.000000 0.000000 152.753042 -60.301568 159.265613 11.895171 -2.666450 -1.182806 3.072429 0.326372 -3.648589 0.640480 -2.702855 1.017899 0.000000 0.000000 0.000000 -4.617275 -1.193554 -2.519893 2.852801 19.866596 -5.340814 -15.322998 15.731935 -2.886628 0.000000 0.000000 0.000000 -4.503541 -1.489336 -2.409710 -0.712804 -8.759795 -5.532344 1.788105 0.314734 -0.060207 -25.813351 -12.534141 -48.812066 -19.596846 -37.354499 -16.243573 0.000000 0.000000 0.000000 -5.751054 -1.705243 -2.689620 -5.570063 18.509391 3.042747 0.630521 -3.607507 -0.597523 -8.296261 -11.712357 60.572310 16.790845 37.380256 -5.944534 0.000000 0.000000 0.000000 
23.594568 81.103424 3.512733 0.000000 0.000000 0.000000 158.190610 -58.149171 164.429660 -65.955189 36.231572 52.612893 37.908499 -16.066980 -2.860250 16.304894 1.462947 6.554498 1.840590 2.429818 -10.641516 0.000000 0.000000 0.000000 160.214094 -55.233424 168.367701 -40.405179 -13.042718 -28.349177 35.739276 -0.290573 0.607737 -23.297724 2.030993 11.078120 4.822593 4.281899 1.154731 0.000000 0.000000 0.000000 153.731876 -58.549106 160.021893 12.404866 -2.525980 -0.895616 2.587370 1.059021 -3.933189 0.513278 -2.826440 1.233183 0.000000 0.000000 0.000000 -5.215014 -0.401057 -2.743084 2.826339 20.660294 -5.756853 -14.827343 16.226921 -2.508722 0.000000 0.000000 0.000000 -5.133652 -0.633378 -2.684984 -0.706855 -8.800746 -5.561680 2.499793 0.230124 -0.105053 -25.549677 -10.041040 -48.983088 -20.560908 -38.870648 -16.528790 0.000000 0.000000 0.000000 -6.245634 -0.868947 -2.972924 -5.452541 18.302486 2.909334 0.321885 -3.838437 -0.582708 -6.778177 -11.754005 60.097004 16.931610 36.808818 -6.014836 0.000000 0.000000 0.000000 
22.555618 80.879089 2.800262 0.000000 0.000000 0.000000 159.315952 -56.512329 165.386938 -66.682563 34.512755 52.082743 37.791075 -17.676820 -2.928125 17.002856 0.588335 5.926540 1.341645 0.463313 -6.744642 0.000000 0.000000 0.000000 161.003186 -53.411294 169.052031 -39.835398 -11.647330 -28.046302 36.443437 0.436165 0.767542 -24.105483 2.687227 11.354632 4.914737 4.081438 1.153951 0.000000 0.000000 0.000000 154.912556 -56.788071 160.949774 12.929795 -2.317057 -0.567497 2.143587 1.806104 -4.198257 0.296576 -2.875690 1.428967 0.000000 0.000000 0.000000 -5.710176 0.386423 -2.943582 2.928657 21.144474 -6.201645 -14.324131 16.342595 -1.985885 0.000000 0.000000 0.000000 -5.726724 0.221560 -2.945082 -0.725736 -8.910735 -5.682825 3.259860 0.081339 -0.116999 -24.737697 -7.613226 -48.976049 -21.201373 -39.978354 -16.629021 0.000000 0.000000 0.000000 -6.729065 -0.058141 -3.244799 -5.289861 18.097640 2.873654 0.072520 -3.894062 -0.555003 -5.074586 -11.824471 59.603400 16.364937 35.759582 -5.672883 0.000000 0.000000 0.000000 
21.273993 80.591797 2.156433 0.000000 0.000000 0.000000 160.688793 -54.685431 166.677161 -66.547790 33.097444 50.779530 37.836632 -17.920039 -3.064431 15.283938 0.806319 6.222878 -0.568949 -1.632890 -2.519784 0.000000 0.000000 0.000000 162.031649 -51.495699 170.038707 -39.172416 -10.466187 -27.809894 37.001522 1.063014 0.926381 -24.539133 3.122476 11.697143 4.821200 3.826584 1.086523 0.000000 0.000000 0.000000 156.217519 -54.932718 162.042044 13.445269 -2.008701 -0.340096 1.732630 2.604956 -4.416831 0.109996 -3.001872 1.556572 0.000000 0.000000 0.000000 -6.108189 1.197925 -3.087470 3.153458 21.288351 -6.748511 -13.962511 16.119777 -1.337179 0.000000 0.000000 0.000000 -6.299554 1.090406 -3.166813 -0.746487 -9.052915 -5.836703 4.016408 -0.148304 -0.046861 -23.396166 -5.552565 -48.843714 -21.458930 -40.617953 -16.502956 0.000000 0.000000 0.000000 -7.210250 0.764097 -3.463237 -5.086497 17.877183 2.890148 -0.171798 -3.599131 -0.598726 -3.218260 -12.050861 59.212952 15.148043 34.378620 -5.031655 0.000000 0.000000 0.000000 
19.793800 80.215714 1.612167 0.000000 0.000000 0.000000 162.066196 -52.717599 168.071681 -65.755153 32.031098 48.784568 37.867535 -17.129192 -3.119711 11.690985 1.764354 7.002379 -2.050809 -3.687039 0.728636 0.000000 0.000000 0.000000 163.175050 -49.536828 171.237268 -38.322600 -9.687199 -27.710040 37.552261 1.377869 1.089600 -24.887258 3.202152 11.801728 4.666279 3.532940 0.988995 0.000000 0.000000 0.000000 157.533423 -53.047538 163.325109 13.917975 -1.629218 -0.357216 1.337950 3.441350 -4.563078 0.055017 -3.240539 1.559792 0.000000 0.000000 0.000000 -6.452745 2.028810 -3.145445 3.488120 21.104957 -7.450605 -13.822314 15.601142 -0.604371 0.000000 0.000000 0.000000 -6.863378 1.971173 -3.307091 -0.759469 -9.151441 -5.951599 4.661542 -0.278657 0.075239 -21.604884 -4.029327 -48.635455 -21.406228 -40.917966 -16.222915 0.000000 0.000000 0.000000 -7.680417 1.592562 -3.589315 -4.841111 17.576684 2.847473 -0.315837 -2.978380 -0.620343 -1.239601 -12.591867 59.041371 13.380592 33.058614 -4.258521 0.000000 0.000000 0.000000 
